G75*
%MOIN*%
%OFA0B0*%
%FSLAX24Y24*%
%IPPOS*%
%LPD*%
%AMOC8*
5,1,8,0,0,1.08239X$1,22.5*
%
%ADD10C,0.0000*%
%ADD11C,0.0070*%
%ADD12C,0.0080*%
%ADD13OC8,0.0600*%
%ADD14C,0.0413*%
%ADD15R,0.0413X0.0413*%
%ADD16C,0.0120*%
%ADD17C,0.0240*%
D10*
X000100Y002069D02*
X002738Y002069D01*
X002738Y000100D01*
X004313Y000100D01*
X004313Y002069D01*
X006950Y002069D01*
X006950Y007902D01*
X000100Y007902D01*
X000100Y002069D01*
D11*
X005860Y002370D02*
X005970Y002480D01*
X006190Y002480D01*
X006135Y002628D02*
X006025Y002628D01*
X005970Y002683D01*
X005970Y002849D01*
X005860Y002849D02*
X006190Y002849D01*
X006190Y002683D01*
X006135Y002628D01*
X006025Y002480D02*
X006025Y002260D01*
X005970Y002260D02*
X005860Y002370D01*
X005970Y002260D02*
X006190Y002260D01*
X006470Y002260D02*
X006635Y002260D01*
X006690Y002315D01*
X006635Y002370D01*
X006690Y002425D01*
X006635Y002480D01*
X006470Y002480D01*
X006470Y002628D02*
X006635Y002628D01*
X006690Y002683D01*
X006635Y002738D01*
X006690Y002793D01*
X006635Y002849D01*
X006470Y002849D01*
X006470Y002997D02*
X006635Y002997D01*
X006690Y003052D01*
X006635Y003107D01*
X006690Y003162D01*
X006635Y003217D01*
X006470Y003217D01*
X006300Y003365D02*
X005970Y003365D01*
X005970Y003530D01*
X006025Y003585D01*
X006135Y003585D01*
X006190Y003530D01*
X006190Y003365D01*
X006190Y003217D02*
X006025Y003217D01*
X005970Y003162D01*
X005970Y003052D01*
X006080Y003052D02*
X006080Y003217D01*
X006190Y003217D02*
X006190Y003052D01*
X006135Y002997D01*
X006080Y003052D01*
X006525Y003549D02*
X006470Y003604D01*
X006470Y003769D01*
X006360Y003769D02*
X006690Y003769D01*
X006690Y003604D01*
X006635Y003549D01*
X006525Y003549D01*
X006635Y003420D02*
X006690Y003420D01*
X006690Y003365D01*
X006635Y003365D01*
X006635Y003420D01*
X006635Y003917D02*
X006525Y003917D01*
X006470Y003972D01*
X006470Y004083D01*
X006525Y004138D01*
X006580Y004138D01*
X006580Y003917D01*
X006635Y003917D02*
X006690Y003972D01*
X006690Y004083D01*
X006690Y004286D02*
X006470Y004286D01*
X006470Y004341D01*
X006525Y004396D01*
X006470Y004451D01*
X006525Y004506D01*
X006690Y004506D01*
X006690Y004396D02*
X006525Y004396D01*
X006525Y004654D02*
X006470Y004709D01*
X006470Y004819D01*
X006525Y004874D01*
X006635Y004874D01*
X006690Y004819D01*
X006690Y004709D01*
X006635Y004654D01*
X006525Y004654D01*
X006470Y005022D02*
X006470Y005187D01*
X006525Y005243D01*
X006635Y005243D01*
X006690Y005187D01*
X006690Y005022D01*
X006360Y005022D01*
X006190Y005022D02*
X006190Y005132D01*
X006190Y005077D02*
X005860Y005077D01*
X005860Y005022D02*
X005860Y005132D01*
X005915Y005268D02*
X006135Y005268D01*
X006190Y005323D01*
X006190Y005433D01*
X006135Y005488D01*
X006190Y005636D02*
X006190Y005856D01*
X006135Y006005D02*
X006190Y006060D01*
X006190Y006170D01*
X006135Y006225D01*
X006080Y006225D01*
X006025Y006170D01*
X006025Y006115D01*
X006025Y006170D02*
X005970Y006225D01*
X005915Y006225D01*
X005860Y006170D01*
X005860Y006060D01*
X005915Y006005D01*
X005860Y005856D02*
X005860Y005636D01*
X006190Y005636D01*
X006025Y005636D02*
X006025Y005746D01*
X005915Y005488D02*
X005860Y005433D01*
X005860Y005323D01*
X005915Y005268D01*
X006470Y005446D02*
X006525Y005391D01*
X006635Y005391D01*
X006690Y005446D01*
X006690Y005556D01*
X006635Y005611D01*
X006525Y005611D01*
X006470Y005556D01*
X006470Y005446D01*
X006635Y005759D02*
X006580Y005814D01*
X006580Y005979D01*
X006525Y005979D02*
X006690Y005979D01*
X006690Y005814D01*
X006635Y005759D01*
X006470Y005814D02*
X006470Y005924D01*
X006525Y005979D01*
X006580Y006127D02*
X006470Y006237D01*
X006470Y006292D01*
X006525Y006434D02*
X006470Y006489D01*
X006470Y006654D01*
X006360Y006654D02*
X006690Y006654D01*
X006690Y006489D01*
X006635Y006434D01*
X006525Y006434D01*
X006470Y006127D02*
X006690Y006127D01*
X006190Y006741D02*
X006190Y006851D01*
X006190Y006796D02*
X005860Y006796D01*
X005860Y006741D02*
X005860Y006851D01*
X005915Y006987D02*
X005970Y006987D01*
X006025Y007042D01*
X006025Y007152D01*
X006080Y007207D01*
X006135Y007207D01*
X006190Y007152D01*
X006190Y007042D01*
X006135Y006987D01*
X006360Y007207D02*
X006690Y007207D01*
X006690Y007042D01*
X006635Y006987D01*
X006525Y006987D01*
X006470Y007042D01*
X006470Y007207D01*
X006525Y007355D02*
X006470Y007410D01*
X006470Y007520D01*
X006525Y007575D01*
X006580Y007575D01*
X006580Y007355D01*
X006635Y007355D02*
X006690Y007410D01*
X006690Y007520D01*
X006635Y007355D02*
X006525Y007355D01*
X006190Y007355D02*
X005860Y007355D01*
X005860Y007520D01*
X005915Y007575D01*
X006025Y007575D01*
X006080Y007520D01*
X006080Y007355D01*
X005915Y007207D02*
X005860Y007152D01*
X005860Y007042D01*
X005915Y006987D01*
X006635Y006858D02*
X006690Y006858D01*
X006690Y006803D01*
X006635Y006803D01*
X006635Y006858D01*
X005970Y004512D02*
X005970Y004457D01*
X006080Y004347D01*
X006190Y004347D02*
X005970Y004347D01*
X006025Y004199D02*
X006080Y004199D01*
X006080Y003979D01*
X006135Y003979D02*
X006190Y004034D01*
X006190Y004144D01*
X006025Y004199D02*
X005970Y004144D01*
X005970Y004034D01*
X006025Y003979D01*
X006135Y003979D01*
X006190Y003843D02*
X006135Y003788D01*
X005915Y003788D01*
X005970Y003733D02*
X005970Y003843D01*
D12*
X001185Y003783D02*
X001185Y003679D01*
X001082Y003679D01*
X001082Y003783D01*
X001185Y003783D01*
X001082Y004001D02*
X000668Y004415D01*
X001082Y004415D01*
X001185Y004312D01*
X001185Y004105D01*
X001082Y004001D01*
X000668Y004001D01*
X000564Y004105D01*
X000564Y004312D01*
X000668Y004415D01*
X001185Y003448D02*
X001185Y003035D01*
X001185Y003241D02*
X000564Y003241D01*
X000771Y003035D01*
X000978Y002804D02*
X000564Y002804D01*
X000564Y002390D02*
X000978Y002390D01*
X001185Y002597D01*
X000978Y002804D01*
D13*
X002525Y002600D03*
X002525Y003600D03*
X003525Y003600D03*
X003525Y002600D03*
X004525Y002600D03*
X004525Y003600D03*
D14*
X004525Y006475D03*
X004025Y006475D03*
X003525Y006475D03*
X003025Y006475D03*
X003025Y006975D03*
X002525Y006975D03*
X003525Y006975D03*
X004025Y006975D03*
X004525Y006975D03*
D15*
X002525Y006475D03*
D16*
X002100Y007225D02*
X002100Y003025D01*
X002525Y002600D01*
X003525Y003600D02*
X003525Y005650D01*
X003850Y005975D01*
X004350Y005975D01*
X004525Y006150D01*
X004525Y006475D01*
X004525Y006975D02*
X004775Y007225D01*
X005225Y007225D01*
X003525Y006975D02*
X003150Y007350D01*
X002225Y007350D01*
X002100Y007225D01*
D17*
X005225Y007225D03*
M02*
