G75*
%MOIN*%
%OFA0B0*%
%FSLAX24Y24*%
%IPPOS*%
%LPD*%
%AMOC8*
5,1,8,0,0,1.08239X$1,22.5*
%
%ADD10C,0.0000*%
%ADD11C,0.0050*%
D10*
X000100Y002069D02*
X002738Y002069D01*
X002738Y000100D01*
X004313Y000100D01*
X004313Y002069D01*
X006950Y002069D01*
X006950Y007902D01*
X000100Y007902D01*
X000100Y002069D01*
D11*
X000966Y005741D02*
X000966Y007709D01*
X006084Y007709D01*
X006084Y005741D01*
X003998Y005741D01*
X003053Y005741D01*
X003053Y006016D01*
X003998Y006016D01*
X003998Y005741D01*
X003998Y006016D02*
X005691Y006016D01*
X005691Y007434D01*
X001360Y007434D01*
X001360Y006016D01*
X002265Y006016D01*
X002541Y005741D01*
X002817Y006016D01*
X002265Y006016D01*
X002541Y005741D02*
X000966Y005741D01*
X000725Y006175D02*
X000800Y006250D01*
X000800Y006400D01*
X000725Y006475D01*
X000650Y006475D01*
X000575Y006400D01*
X000575Y006250D01*
X000500Y006175D01*
X000425Y006175D01*
X000350Y006250D01*
X000350Y006400D01*
X000425Y006475D01*
X000350Y006636D02*
X000350Y006936D01*
X000350Y006786D02*
X000800Y006786D01*
X000800Y007096D02*
X000800Y007396D01*
X000800Y007246D02*
X000350Y007246D01*
X000500Y007096D01*
X002541Y005741D02*
X003053Y005741D01*
X003053Y006016D02*
X002817Y006016D01*
X005200Y003515D02*
X005125Y003440D01*
X005125Y003290D01*
X005200Y003215D01*
X005200Y003055D02*
X005350Y003055D01*
X005425Y002980D01*
X005425Y002754D01*
X005575Y002754D02*
X005125Y002754D01*
X005125Y002980D01*
X005200Y003055D01*
X005575Y003215D02*
X005275Y003515D01*
X005200Y003515D01*
X005575Y003515D02*
X005575Y003215D01*
X005125Y002594D02*
X005125Y002444D01*
X005125Y002519D02*
X005500Y002519D01*
X005575Y002444D01*
X005575Y002369D01*
X005500Y002294D01*
M02*
