G75*
%MOIN*%
%OFA0B0*%
%FSLAX24Y24*%
%IPPOS*%
%LPD*%
%AMOC8*
5,1,8,0,0,1.08239X$1,22.5*
%
%ADD10C,0.0000*%
%ADD11C,0.0080*%
%ADD12OC8,0.0600*%
%ADD13C,0.0413*%
%ADD14R,0.0413X0.0413*%
%ADD15C,0.0120*%
%ADD16C,0.0240*%
D10*
X000100Y002069D02*
X002738Y002069D01*
X002738Y000100D01*
X004313Y000100D01*
X004313Y002069D01*
X006950Y002069D01*
X006950Y007902D01*
X000100Y007902D01*
X000100Y002069D01*
D11*
X005021Y002265D02*
X005435Y002265D01*
X005228Y002265D02*
X005228Y002886D01*
X005435Y002679D01*
D12*
X004525Y002600D03*
X004525Y003600D03*
X003525Y003600D03*
X003525Y002600D03*
X002525Y002600D03*
X002525Y003600D03*
D13*
X003025Y006475D03*
X003025Y006975D03*
X002525Y006975D03*
X003525Y006975D03*
X003525Y006475D03*
X004025Y006475D03*
X004025Y006975D03*
X004525Y006975D03*
X004525Y006475D03*
D14*
X002525Y006475D03*
D15*
X002525Y006050D01*
X002975Y005600D01*
X002975Y003150D01*
X003525Y002600D01*
X004038Y003088D02*
X004525Y002600D01*
X004038Y003088D02*
X004038Y005694D01*
X003631Y006100D01*
X003225Y006100D01*
X003025Y006300D01*
X003025Y006475D01*
X003025Y006975D02*
X003025Y007275D01*
X003100Y007350D01*
X004725Y007350D01*
X004975Y007100D01*
X004975Y004050D01*
X004525Y003600D01*
X002525Y003600D02*
X002100Y004025D01*
X002100Y006850D01*
X002225Y006975D01*
X002525Y006975D01*
X002525Y007275D01*
X002850Y007600D01*
X004850Y007600D01*
X005225Y007225D01*
D16*
X005225Y007225D03*
M02*
