G75*
%MOIN*%
%OFA0B0*%
%FSLAX24Y24*%
%IPPOS*%
%LPD*%
%AMOC8*
5,1,8,0,0,1.08239X$1,22.5*
%
%ADD10C,0.0000*%
%ADD11C,0.0060*%
%ADD12C,0.0050*%
D10*
X000100Y002069D02*
X000100Y007777D01*
X006950Y007777D01*
X006950Y002069D01*
X004313Y002069D01*
X004313Y000100D01*
X002738Y000100D01*
X002738Y002069D01*
X000100Y002069D01*
D11*
X001025Y002350D02*
X001275Y002100D01*
X001775Y002100D01*
X002025Y002350D01*
X002275Y002100D01*
X002775Y002100D01*
X003025Y002350D01*
X003275Y002100D01*
X003775Y002100D01*
X004025Y002350D01*
X004275Y002100D01*
X004775Y002100D01*
X005025Y002350D01*
X005275Y002100D01*
X005775Y002100D01*
X006025Y002350D01*
X006025Y003850D01*
X005775Y004100D01*
X005275Y004100D01*
X005025Y003850D01*
X004775Y004100D01*
X004275Y004100D01*
X004025Y003850D01*
X003775Y004100D01*
X003275Y004100D01*
X003025Y003850D01*
X002775Y004100D01*
X002275Y004100D01*
X002025Y003850D01*
X001775Y004100D01*
X001275Y004100D01*
X001025Y003850D01*
X001025Y002350D01*
D12*
X001015Y004275D02*
X001165Y004275D01*
X001240Y004350D01*
X000940Y004650D01*
X000940Y004350D01*
X001015Y004275D01*
X001240Y004350D02*
X001240Y004650D01*
X001165Y004725D01*
X001015Y004725D01*
X000940Y004650D01*
X001400Y004275D02*
X001700Y004275D01*
X001550Y004275D02*
X001550Y004725D01*
X001700Y004575D01*
X005400Y001475D02*
X005700Y001475D01*
X005550Y001475D02*
X005550Y001925D01*
X005700Y001775D01*
M02*
