G75*
%MOIN*%
%OFA0B0*%
%FSLAX24Y24*%
%IPPOS*%
%LPD*%
%AMOC8*
5,1,8,0,0,1.08239X$1,22.5*
%
%ADD10C,0.0000*%
%ADD11C,0.0050*%
D10*
X000100Y002069D02*
X000100Y007777D01*
X006950Y007777D01*
X006950Y002069D01*
X004313Y002069D01*
X004313Y000100D01*
X002738Y000100D01*
X002738Y002069D01*
X000100Y002069D01*
D11*
X001041Y005616D02*
X001041Y007584D01*
X006159Y007584D01*
X006159Y005616D01*
X004072Y005616D01*
X003128Y005616D01*
X003128Y005891D01*
X004072Y005891D01*
X004072Y005616D01*
X004072Y005891D02*
X005765Y005891D01*
X005765Y007309D01*
X001435Y007309D01*
X001435Y005891D01*
X002340Y005891D01*
X002616Y005616D01*
X002891Y005891D01*
X002340Y005891D01*
X002616Y005616D02*
X001041Y005616D01*
X002616Y005616D02*
X003128Y005616D01*
X003128Y005891D02*
X002891Y005891D01*
X002346Y007775D02*
X002046Y007775D01*
X002196Y007775D02*
X002196Y008225D01*
X002046Y008075D01*
X001886Y008225D02*
X001585Y008225D01*
X001736Y008225D02*
X001736Y007775D01*
X001425Y007850D02*
X001350Y007775D01*
X001200Y007775D01*
X001125Y007850D01*
X001200Y008000D02*
X001350Y008000D01*
X001425Y007925D01*
X001425Y007850D01*
X001425Y008150D02*
X001350Y008225D01*
X001200Y008225D01*
X001125Y008150D01*
X001125Y008075D01*
X001200Y008000D01*
X006250Y003471D02*
X006400Y003321D01*
X006250Y003471D02*
X006700Y003471D01*
X006700Y003321D02*
X006700Y003621D01*
X006550Y003161D02*
X006250Y003161D01*
X006550Y003161D02*
X006700Y003011D01*
X006550Y002861D01*
X006250Y002861D01*
X006325Y002700D02*
X006250Y002625D01*
X006250Y002475D01*
X006325Y002400D01*
X006400Y002400D01*
X006475Y002475D01*
X006475Y002625D01*
X006550Y002700D01*
X006625Y002700D01*
X006700Y002625D01*
X006700Y002475D01*
X006625Y002400D01*
M02*
